<svg xmlns="http://www.w3.org/2000/svg" version="1.1" xmlns:xlink="http://www.w3.org/1999/xlink" xmlns:svgjs="http://svgjs.dev/svgjs" viewBox="0 0 800 800" width="800" height="800"><g stroke-width="2.25" stroke="#ffffffce" fill="none"><line x1="72.72727272727273" y1="0" x2="0" y2="72.72727272727273"></line><line x1="145.45454545454547" y1="0" x2="72.72727272727273" y2="72.72727272727273"></line><line x1="218.1818181818182" y1="0" x2="145.45454545454547" y2="72.72727272727273"></line><line x1="290.90909090909093" y1="0" x2="218.1818181818182" y2="72.72727272727273"></line><line x1="363.6363636363637" y1="0" x2="290.90909090909093" y2="72.72727272727273"></line><line x1="436.36363636363643" y1="0" x2="363.6363636363637" y2="72.72727272727273"></line><line x1="509.0909090909092" y1="0" x2="436.36363636363643" y2="72.72727272727273"></line><line x1="581.8181818181819" y1="0" x2="509.0909090909092" y2="72.72727272727273"></line><line x1="654.5454545454546" y1="0" x2="581.8181818181819" y2="72.72727272727273"></line><line x1="727.2727272727274" y1="0" x2="654.5454545454546" y2="72.72727272727273"></line><line x1="800.0000000000001" y1="0" x2="727.2727272727274" y2="72.72727272727273"></line><line x1="872.7272727272729" y1="0" x2="800.0000000000001" y2="72.72727272727273"></line><line x1="72.72727272727273" y1="72.72727272727273" x2="0" y2="145.45454545454547"></line><line x1="145.45454545454547" y1="72.72727272727273" x2="72.72727272727273" y2="145.45454545454547"></line><line x1="218.1818181818182" y1="72.72727272727273" x2="145.45454545454547" y2="145.45454545454547"></line><line x1="290.90909090909093" y1="72.72727272727273" x2="218.1818181818182" y2="145.45454545454547"></line><line x1="363.6363636363637" y1="72.72727272727273" x2="290.90909090909093" y2="145.45454545454547"></line><line x1="436.36363636363643" y1="72.72727272727273" x2="363.6363636363637" y2="145.45454545454547"></line><line x1="509.0909090909092" y1="72.72727272727273" x2="436.36363636363643" y2="145.45454545454547"></line><line x1="581.8181818181819" y1="72.72727272727273" x2="509.0909090909092" y2="145.45454545454547"></line><line x1="654.5454545454546" y1="72.72727272727273" x2="581.8181818181819" y2="145.45454545454547"></line><line x1="727.2727272727274" y1="72.72727272727273" x2="654.5454545454546" y2="145.45454545454547"></line><line x1="800.0000000000001" y1="72.72727272727273" x2="727.2727272727274" y2="145.45454545454547"></line><line x1="872.7272727272729" y1="72.72727272727273" x2="800.0000000000001" y2="145.45454545454547"></line><line x1="72.72727272727273" y1="145.45454545454547" x2="0" y2="218.1818181818182"></line><line x1="145.45454545454547" y1="145.45454545454547" x2="72.72727272727273" y2="218.1818181818182"></line><line x1="218.1818181818182" y1="145.45454545454547" x2="145.45454545454547" y2="218.1818181818182"></line><line x1="290.90909090909093" y1="145.45454545454547" x2="218.1818181818182" y2="218.1818181818182"></line><line x1="363.6363636363637" y1="145.45454545454547" x2="290.90909090909093" y2="218.1818181818182"></line><line x1="436.36363636363643" y1="145.45454545454547" x2="363.6363636363637" y2="218.1818181818182"></line><line x1="509.0909090909092" y1="145.45454545454547" x2="436.36363636363643" y2="218.1818181818182"></line><line x1="581.8181818181819" y1="145.45454545454547" x2="509.0909090909092" y2="218.1818181818182"></line><line x1="654.5454545454546" y1="145.45454545454547" x2="581.8181818181819" y2="218.1818181818182"></line><line x1="727.2727272727274" y1="145.45454545454547" x2="654.5454545454546" y2="218.1818181818182"></line><line x1="800.0000000000001" y1="145.45454545454547" x2="727.2727272727274" y2="218.1818181818182"></line><line x1="872.7272727272729" y1="145.45454545454547" x2="800.0000000000001" y2="218.1818181818182"></line><line x1="72.72727272727273" y1="218.1818181818182" x2="0" y2="290.90909090909093"></line><line x1="145.45454545454547" y1="218.1818181818182" x2="72.72727272727273" y2="290.90909090909093"></line><line x1="218.1818181818182" y1="218.1818181818182" x2="145.45454545454547" y2="290.90909090909093"></line><line x1="290.90909090909093" y1="218.1818181818182" x2="218.1818181818182" y2="290.90909090909093"></line><line x1="363.6363636363637" y1="218.1818181818182" x2="290.90909090909093" y2="290.90909090909093"></line><line x1="436.36363636363643" y1="218.1818181818182" x2="363.6363636363637" y2="290.90909090909093"></line><line x1="509.0909090909092" y1="218.1818181818182" x2="436.36363636363643" y2="290.90909090909093"></line><line x1="581.8181818181819" y1="218.1818181818182" x2="509.0909090909092" y2="290.90909090909093"></line><line x1="654.5454545454546" y1="218.1818181818182" x2="581.8181818181819" y2="290.90909090909093"></line><line x1="727.2727272727274" y1="218.1818181818182" x2="654.5454545454546" y2="290.90909090909093"></line><line x1="800.0000000000001" y1="218.1818181818182" x2="727.2727272727274" y2="290.90909090909093"></line><line x1="872.7272727272729" y1="218.1818181818182" x2="800.0000000000001" y2="290.90909090909093"></line><line x1="72.72727272727273" y1="290.90909090909093" x2="0" y2="363.6363636363637"></line><line x1="145.45454545454547" y1="290.90909090909093" x2="72.72727272727273" y2="363.6363636363637"></line><line x1="218.1818181818182" y1="290.90909090909093" x2="145.45454545454547" y2="363.6363636363637"></line><line x1="290.90909090909093" y1="290.90909090909093" x2="218.1818181818182" y2="363.6363636363637"></line><line x1="363.6363636363637" y1="290.90909090909093" x2="290.90909090909093" y2="363.6363636363637"></line><line x1="436.36363636363643" y1="290.90909090909093" x2="363.6363636363637" y2="363.6363636363637"></line><line x1="509.0909090909092" y1="290.90909090909093" x2="436.36363636363643" y2="363.6363636363637"></line><line x1="581.8181818181819" y1="290.90909090909093" x2="509.0909090909092" y2="363.6363636363637"></line><line x1="654.5454545454546" y1="290.90909090909093" x2="581.8181818181819" y2="363.6363636363637"></line><line x1="727.2727272727274" y1="290.90909090909093" x2="654.5454545454546" y2="363.6363636363637"></line><line x1="800.0000000000001" y1="290.90909090909093" x2="727.2727272727274" y2="363.6363636363637"></line><line x1="872.7272727272729" y1="290.90909090909093" x2="800.0000000000001" y2="363.6363636363637"></line><line x1="72.72727272727273" y1="363.6363636363637" x2="0" y2="436.36363636363643"></line><line x1="145.45454545454547" y1="363.6363636363637" x2="72.72727272727273" y2="436.36363636363643"></line><line x1="218.1818181818182" y1="363.6363636363637" x2="145.45454545454547" y2="436.36363636363643"></line><line x1="290.90909090909093" y1="363.6363636363637" x2="218.1818181818182" y2="436.36363636363643"></line><line x1="363.6363636363637" y1="363.6363636363637" x2="290.90909090909093" y2="436.36363636363643"></line><line x1="436.36363636363643" y1="363.6363636363637" x2="363.6363636363637" y2="436.36363636363643"></line><line x1="509.0909090909092" y1="363.6363636363637" x2="436.36363636363643" y2="436.36363636363643"></line><line x1="581.8181818181819" y1="363.6363636363637" x2="509.0909090909092" y2="436.36363636363643"></line><line x1="654.5454545454546" y1="363.6363636363637" x2="581.8181818181819" y2="436.36363636363643"></line><line x1="727.2727272727274" y1="363.6363636363637" x2="654.5454545454546" y2="436.36363636363643"></line><line x1="800.0000000000001" y1="363.6363636363637" x2="727.2727272727274" y2="436.36363636363643"></line><line x1="872.7272727272729" y1="363.6363636363637" x2="800.0000000000001" y2="436.36363636363643"></line><line x1="72.72727272727273" y1="436.36363636363643" x2="0" y2="509.0909090909092"></line><line x1="145.45454545454547" y1="436.36363636363643" x2="72.72727272727273" y2="509.0909090909092"></line><line x1="218.1818181818182" y1="436.36363636363643" x2="145.45454545454547" y2="509.0909090909092"></line><line x1="290.90909090909093" y1="436.36363636363643" x2="218.1818181818182" y2="509.0909090909092"></line><line x1="363.6363636363637" y1="436.36363636363643" x2="290.90909090909093" y2="509.0909090909092"></line><line x1="436.36363636363643" y1="436.36363636363643" x2="363.6363636363637" y2="509.0909090909092"></line><line x1="509.0909090909092" y1="436.36363636363643" x2="436.36363636363643" y2="509.0909090909092"></line><line x1="581.8181818181819" y1="436.36363636363643" x2="509.0909090909092" y2="509.0909090909092"></line><line x1="654.5454545454546" y1="436.36363636363643" x2="581.8181818181819" y2="509.0909090909092"></line><line x1="727.2727272727274" y1="436.36363636363643" x2="654.5454545454546" y2="509.0909090909092"></line><line x1="800.0000000000001" y1="436.36363636363643" x2="727.2727272727274" y2="509.0909090909092"></line><line x1="872.7272727272729" y1="436.36363636363643" x2="800.0000000000001" y2="509.0909090909092"></line><line x1="72.72727272727273" y1="509.0909090909092" x2="0" y2="581.8181818181819"></line><line x1="145.45454545454547" y1="509.0909090909092" x2="72.72727272727273" y2="581.8181818181819"></line><line x1="218.1818181818182" y1="509.0909090909092" x2="145.45454545454547" y2="581.8181818181819"></line><line x1="290.90909090909093" y1="509.0909090909092" x2="218.1818181818182" y2="581.8181818181819"></line><line x1="363.6363636363637" y1="509.0909090909092" x2="290.90909090909093" y2="581.8181818181819"></line><line x1="436.36363636363643" y1="509.0909090909092" x2="363.6363636363637" y2="581.8181818181819"></line><line x1="509.0909090909092" y1="509.0909090909092" x2="436.36363636363643" y2="581.8181818181819"></line><line x1="581.8181818181819" y1="509.0909090909092" x2="509.0909090909092" y2="581.8181818181819"></line><line x1="654.5454545454546" y1="509.0909090909092" x2="581.8181818181819" y2="581.8181818181819"></line><line x1="727.2727272727274" y1="509.0909090909092" x2="654.5454545454546" y2="581.8181818181819"></line><line x1="800.0000000000001" y1="509.0909090909092" x2="727.2727272727274" y2="581.8181818181819"></line><line x1="872.7272727272729" y1="509.0909090909092" x2="800.0000000000001" y2="581.8181818181819"></line><line x1="72.72727272727273" y1="581.8181818181819" x2="0" y2="654.5454545454546"></line><line x1="145.45454545454547" y1="581.8181818181819" x2="72.72727272727273" y2="654.5454545454546"></line><line x1="218.1818181818182" y1="581.8181818181819" x2="145.45454545454547" y2="654.5454545454546"></line><line x1="290.90909090909093" y1="581.8181818181819" x2="218.1818181818182" y2="654.5454545454546"></line><line x1="363.6363636363637" y1="581.8181818181819" x2="290.90909090909093" y2="654.5454545454546"></line><line x1="436.36363636363643" y1="581.8181818181819" x2="363.6363636363637" y2="654.5454545454546"></line><line x1="509.0909090909092" y1="581.8181818181819" x2="436.36363636363643" y2="654.5454545454546"></line><line x1="581.8181818181819" y1="581.8181818181819" x2="509.0909090909092" y2="654.5454545454546"></line><line x1="654.5454545454546" y1="581.8181818181819" x2="581.8181818181819" y2="654.5454545454546"></line><line x1="727.2727272727274" y1="581.8181818181819" x2="654.5454545454546" y2="654.5454545454546"></line><line x1="800.0000000000001" y1="581.8181818181819" x2="727.2727272727274" y2="654.5454545454546"></line><line x1="872.7272727272729" y1="581.8181818181819" x2="800.0000000000001" y2="654.5454545454546"></line><line x1="72.72727272727273" y1="654.5454545454546" x2="0" y2="727.2727272727274"></line><line x1="145.45454545454547" y1="654.5454545454546" x2="72.72727272727273" y2="727.2727272727274"></line><line x1="218.1818181818182" y1="654.5454545454546" x2="145.45454545454547" y2="727.2727272727274"></line><line x1="290.90909090909093" y1="654.5454545454546" x2="218.1818181818182" y2="727.2727272727274"></line><line x1="363.6363636363637" y1="654.5454545454546" x2="290.90909090909093" y2="727.2727272727274"></line><line x1="436.36363636363643" y1="654.5454545454546" x2="363.6363636363637" y2="727.2727272727274"></line><line x1="509.0909090909092" y1="654.5454545454546" x2="436.36363636363643" y2="727.2727272727274"></line><line x1="581.8181818181819" y1="654.5454545454546" x2="509.0909090909092" y2="727.2727272727274"></line><line x1="654.5454545454546" y1="654.5454545454546" x2="581.8181818181819" y2="727.2727272727274"></line><line x1="727.2727272727274" y1="654.5454545454546" x2="654.5454545454546" y2="727.2727272727274"></line><line x1="800.0000000000001" y1="654.5454545454546" x2="727.2727272727274" y2="727.2727272727274"></line><line x1="872.7272727272729" y1="654.5454545454546" x2="800.0000000000001" y2="727.2727272727274"></line><line x1="72.72727272727273" y1="727.2727272727274" x2="0" y2="800.0000000000001"></line><line x1="145.45454545454547" y1="727.2727272727274" x2="72.72727272727273" y2="800.0000000000001"></line><line x1="218.1818181818182" y1="727.2727272727274" x2="145.45454545454547" y2="800.0000000000001"></line><line x1="290.90909090909093" y1="727.2727272727274" x2="218.1818181818182" y2="800.0000000000001"></line><line x1="363.6363636363637" y1="727.2727272727274" x2="290.90909090909093" y2="800.0000000000001"></line><line x1="436.36363636363643" y1="727.2727272727274" x2="363.6363636363637" y2="800.0000000000001"></line><line x1="509.0909090909092" y1="727.2727272727274" x2="436.36363636363643" y2="800.0000000000001"></line><line x1="581.8181818181819" y1="727.2727272727274" x2="509.0909090909092" y2="800.0000000000001"></line><line x1="654.5454545454546" y1="727.2727272727274" x2="581.8181818181819" y2="800.0000000000001"></line><line x1="727.2727272727274" y1="727.2727272727274" x2="654.5454545454546" y2="800.0000000000001"></line><line x1="800.0000000000001" y1="727.2727272727274" x2="727.2727272727274" y2="800.0000000000001"></line><line x1="872.7272727272729" y1="727.2727272727274" x2="800.0000000000001" y2="800.0000000000001"></line><line x1="72.72727272727273" y1="800.0000000000001" x2="0" y2="872.7272727272729"></line><line x1="145.45454545454547" y1="800.0000000000001" x2="72.72727272727273" y2="872.7272727272729"></line><line x1="218.1818181818182" y1="800.0000000000001" x2="145.45454545454547" y2="872.7272727272729"></line><line x1="290.90909090909093" y1="800.0000000000001" x2="218.1818181818182" y2="872.7272727272729"></line><line x1="363.6363636363637" y1="800.0000000000001" x2="290.90909090909093" y2="872.7272727272729"></line><line x1="436.36363636363643" y1="800.0000000000001" x2="363.6363636363637" y2="872.7272727272729"></line><line x1="509.0909090909092" y1="800.0000000000001" x2="436.36363636363643" y2="872.7272727272729"></line><line x1="581.8181818181819" y1="800.0000000000001" x2="509.0909090909092" y2="872.7272727272729"></line><line x1="654.5454545454546" y1="800.0000000000001" x2="581.8181818181819" y2="872.7272727272729"></line><line x1="727.2727272727274" y1="800.0000000000001" x2="654.5454545454546" y2="872.7272727272729"></line><line x1="800.0000000000001" y1="800.0000000000001" x2="727.2727272727274" y2="872.7272727272729"></line><line x1="872.7272727272729" y1="800.0000000000001" x2="800.0000000000001" y2="872.7272727272729"></line></g></svg>